<svg width="16" height="16" viewBox="0 0 16 16" fill="none" xmlns="http://www.w3.org/2000/svg">
<path d="M7.33203 7.33203V4.66536H8.66536V7.33203H11.332V8.66536H8.66536V11.332H7.33203V8.66536H4.66536V7.33203H7.33203ZM7.9987 14.6654C4.3168 14.6654 1.33203 11.6806 1.33203 7.9987C1.33203 4.3168 4.3168 1.33203 7.9987 1.33203C11.6806 1.33203 14.6654 4.3168 14.6654 7.9987C14.6654 11.6806 11.6806 14.6654 7.9987 14.6654ZM7.9987 13.332C10.9442 13.332 13.332 10.9442 13.332 7.9987C13.332 5.05318 10.9442 2.66536 7.9987 2.66536C5.05318 2.66536 2.66536 5.05318 2.66536 7.9987C2.66536 10.9442 5.05318 13.332 7.9987 13.332Z" fill="#1C45C2"/>
</svg>
