<svg width="14" height="15" viewBox="0 0 14 15" fill="none" xmlns="http://www.w3.org/2000/svg">
<path d="M1 13.7354L4.44524 12.4103C4.66561 12.3255 4.77579 12.2831 4.87887 12.2278C4.97044 12.1786 5.05773 12.1219 5.13983 12.0582C5.23226 11.9865 5.31574 11.903 5.48268 11.7361L12.4857 4.73307C13.1714 4.0473 13.1714 2.93545 12.4857 2.24968C11.7999 1.56391 10.6881 1.56391 10.0023 2.24968L2.9993 9.25266C2.83235 9.41961 2.74888 9.50308 2.67715 9.59552C2.61344 9.67762 2.55671 9.76491 2.50756 9.85647C2.45223 9.95956 2.40985 10.0697 2.32509 10.2901L1 13.7354ZM1 13.7354L2.27778 10.4132C2.36921 10.1754 2.41493 10.0566 2.49335 10.0021C2.56188 9.95454 2.64667 9.93655 2.72862 9.9522C2.82239 9.9701 2.91244 10.0602 3.09255 10.2403L4.4951 11.6428C4.67521 11.8229 4.76526 11.913 4.78317 12.0067C4.79882 12.0887 4.78082 12.1735 4.73324 12.242C4.67879 12.3204 4.55993 12.3662 4.32219 12.4576L1 13.7354Z" stroke="white" stroke-width="1.5" stroke-linecap="round" stroke-linejoin="round"/>
</svg>
