<svg width="21" height="20" viewBox="0 0 21 20" fill="none" xmlns="http://www.w3.org/2000/svg">
<g clip-path="url(#clip0_308_13685)">
<path d="M20.7495 10.1871C20.7495 9.36767 20.6797 8.76973 20.5286 8.14966H10.7041V11.848H16.4708C16.3546 12.7671 15.7268 14.1512 14.3316 15.0813L14.312 15.2051L17.4183 17.4969L17.6335 17.5174C19.61 15.7789 20.7495 13.221 20.7495 10.1871Z" fill="#4285F4"/>
<path d="M10.7043 19.9312C13.5295 19.9312 15.9013 19.0453 17.6337 17.5173L14.3317 15.0812C13.4481 15.6681 12.2622 16.0777 10.7043 16.0777C7.93714 16.0777 5.58859 14.3393 4.75139 11.9365L4.62868 11.9464L1.39869 14.3271L1.35645 14.439C3.07716 17.6944 6.61166 19.9312 10.7043 19.9312Z" fill="#34A853"/>
<path d="M4.75131 11.9366C4.53041 11.3165 4.40256 10.6521 4.40256 9.96559C4.40256 9.27902 4.53041 8.61467 4.73968 7.9946L4.73383 7.86254L1.46336 5.4436L1.35636 5.49208C0.64717 6.84299 0.240234 8.36002 0.240234 9.96559C0.240234 11.5712 0.64717 13.0881 1.35636 14.439L4.75131 11.9366Z" fill="#FBBC05"/>
<path d="M10.7042 3.85336C12.6691 3.85336 13.9945 4.66168 14.7503 5.33717L17.7034 2.59107C15.8897 0.985496 13.5295 0 10.7042 0C6.61165 0 3.07716 2.23672 1.35645 5.49214L4.73977 7.99466C5.58859 5.59183 7.93714 3.85336 10.7042 3.85336Z" fill="#EB4335"/>
</g>
<defs>
<clipPath id="clip0_308_13685">
<rect width="21" height="20" fill="white"/>
</clipPath>
</defs>
</svg>
