<svg width="22" height="21" viewBox="0 0 22 21" fill="none" xmlns="http://www.w3.org/2000/svg">
<path d="M9.58633 3.6929C9.99274 3.63282 10.412 3.60059 10.8438 3.60059C15.9488 3.60059 19.2987 8.10543 20.4241 9.88741C20.5603 10.1031 20.6284 10.2109 20.6665 10.3773C20.6951 10.5022 20.6951 10.6992 20.6665 10.8242C20.6283 10.9905 20.5597 11.099 20.4226 11.3162C20.1227 11.7907 19.6656 12.4577 19.0599 13.181M5.56771 5.31562C3.40563 6.78229 1.93783 8.81996 1.26449 9.88587C1.12767 10.1025 1.05926 10.2108 1.02112 10.3771C0.992481 10.502 0.992469 10.699 1.0211 10.8239C1.05921 10.9903 1.12731 11.0981 1.26352 11.3138C2.38893 13.0957 5.7388 17.6006 10.8438 17.6006C12.9022 17.6006 14.6753 16.8682 16.1322 15.8772M1.8438 1.60059L19.8438 19.6006M8.72248 8.47927C8.17959 9.02216 7.8438 9.77216 7.8438 10.6006C7.8438 12.2574 9.18695 13.6006 10.8438 13.6006C11.6722 13.6006 12.4222 13.2648 12.9651 12.7219" stroke="#EDEDED" stroke-width="1.33" stroke-linecap="round" stroke-linejoin="round"/>
</svg>
