<svg width="176" height="30" viewBox="0 0 176 30" fill="none" xmlns="http://www.w3.org/2000/svg">
<path d="M21.8974 12.6106H30.9804C31.6196 12.6106 32.1386 12.0918 32.1386 11.4529V2.11713C32.1386 1.47828 31.6196 0.959473 30.9804 0.959473H21.8974C19.7743 0.959473 17.7838 1.53071 16.0693 2.52141C19.5521 4.53593 21.8974 8.29729 21.8974 12.6092V12.6106Z" fill="url(#paint0_linear_308_13787)"/>
<path d="M16.0693 2.52141C14.3548 1.53071 12.3656 0.959473 10.2412 0.959473H1.15816C0.519032 0.959473 0 1.47828 0 2.11713V11.4515C0 12.0904 0.519032 12.6092 1.15816 12.6092H10.2412C10.2412 8.29729 12.5865 4.53593 16.0693 2.52141Z" fill="url(#paint1_linear_308_13787)"/>
<path d="M21.8973 12.6107C21.8973 8.29882 19.552 4.53747 16.0693 2.52295C12.5865 4.53747 10.2412 8.29882 10.2412 12.6107V28.7379C10.2412 29.3768 10.7602 29.8956 11.3994 29.8956H20.7378C21.3769 29.8956 21.896 29.3768 21.896 28.7379V23.4574V14.8598V12.6107H21.8973Z" fill="url(#paint2_linear_308_13787)"/>
<path d="M45.1514 7.96875H57.9367V11.1671H53.4034V23.315H49.6957V11.1671H45.1514V7.96875Z" fill="#FAFBFF"/>
<path d="M57.4178 23.3136V12.4655H60.7749L60.8881 13.9461C61.3961 12.8726 62.4701 12.2393 63.7249 12.2393C64.1542 12.2393 64.5959 12.3179 65.0473 12.4655L64.8319 15.5729C64.3792 15.4142 63.9167 15.3355 63.464 15.3355C62.1181 15.3355 60.9765 16.0696 60.9765 18.0924V23.3122H57.415L57.4178 23.3136Z" fill="#FAFBFF"/>
<path d="M65.8066 20.2408C65.8066 18.0828 67.9325 16.783 70.3965 16.783C71.1764 16.783 71.9108 16.8852 72.5665 17.0659V16.8507C72.5665 16.0035 71.8197 15.3812 70.5318 15.3812C69.4357 15.3812 68.497 15.9469 67.92 16.5899L65.953 14.4774C66.7784 13.5626 68.4736 12.2407 70.8368 12.2407C74.1374 12.2407 76.1279 13.9807 76.1279 16.8741V23.3151H72.7473V22.2071C72.1938 22.9522 71.1419 23.54 69.854 23.54C67.5598 23.54 65.8066 22.2968 65.8066 20.2408ZM70.6339 21.1101C71.7189 21.1101 72.5665 20.3761 72.5665 19.2225C72.1813 19.0528 71.5602 18.9397 71.0287 18.9397C69.9202 18.9397 69.2204 19.3247 69.2204 20.0242C69.2204 20.6686 69.8084 21.1087 70.6339 21.1087V21.1101Z" fill="#FAFBFF"/>
<path d="M78.332 17.9129C78.332 14.6579 80.3336 12.2405 83.3967 12.2405C85.0366 12.2405 86.054 12.8173 86.6862 13.6079V7.4043H90.1455V23.3149H86.6973L86.5841 22.4787C85.9394 23.1341 84.7412 23.5411 83.3967 23.5411C80.3336 23.5411 78.332 21.1458 78.332 17.9143V17.9129ZM84.3133 20.3538C85.6468 20.3538 86.631 19.3369 86.631 17.8908C86.631 16.4448 85.6482 15.4279 84.3133 15.4279C82.9785 15.4279 81.9169 16.3882 81.9169 17.8908C81.9169 19.3934 82.9564 20.3538 84.3133 20.3538Z" fill="#FAFBFF"/>
<path d="M97.9693 12.2406C100.638 12.2406 103.396 13.913 103.396 17.5405C103.396 17.9365 103.361 18.3656 103.294 18.8058H95.9677C96.114 19.9814 97.2446 20.5347 98.3641 20.5347C99.3359 20.5347 100.207 19.9248 100.795 19.1893L103.056 21.1777C102.231 22.4885 100.523 23.5399 98.3199 23.5399C94.8717 23.5399 92.4863 21.1901 92.4863 17.8896C92.4863 14.5891 94.7019 12.2393 97.9693 12.2393V12.2406ZM95.9691 16.7154H100.106C100.072 15.8682 99.213 15.043 98.0714 15.043C96.8277 15.043 96.0933 15.8226 95.9691 16.7154Z" fill="#FAFBFF"/>
<path d="M105.748 23.3136V12.4655H109.105L109.218 13.9461C109.728 12.8726 110.8 12.2393 112.055 12.2393C112.484 12.2393 112.926 12.3179 113.377 12.4655L113.162 15.5729C112.709 15.4142 112.247 15.3355 111.794 15.3355C110.448 15.3355 109.307 16.0696 109.307 18.0924V23.3122H105.745L105.748 23.3136Z" fill="#FAFBFF"/>
<path d="M116.33 19.3026C117.099 20.2174 118.06 20.7721 119.168 20.7721C119.778 20.7721 120.344 20.6024 120.344 20.1056C120.344 19.6089 119.678 19.5744 118.005 19.1563C116.038 18.6596 114.478 17.7434 114.478 15.7551C114.478 13.7668 116.264 12.2407 118.954 12.2407C121.159 12.2407 122.651 13.3929 123.374 14.3656L121.283 16.1401C120.876 15.6433 120.063 14.999 118.92 14.999C118.083 14.999 117.63 15.2818 117.63 15.7109C117.63 16.1401 118.433 16.3443 119.756 16.6602C121.859 17.157 123.634 18.0608 123.634 20.118C123.634 22.1753 121.701 23.5413 119.146 23.5413C116.591 23.5413 115.053 22.4899 114.16 21.2591L116.33 19.304V19.3026Z" fill="#FAFBFF"/>
<path d="M126.323 7.96875H137.492V11.0982H130.042V14.0247H135.887V17.1555H130.042V23.3136H126.323V7.96875Z" fill="#FAFBFF"/>
<path d="M143.587 12.2407C146.944 12.2407 149.42 14.6581 149.42 17.891C149.42 21.1239 146.945 23.5413 143.587 23.5413C140.228 23.5413 137.753 21.1225 137.753 17.891C137.753 14.6595 140.229 12.2407 143.587 12.2407ZM143.587 20.2974C144.943 20.2974 145.893 19.2695 145.893 17.891C145.893 16.5126 144.943 15.5178 143.587 15.5178C142.23 15.5178 141.28 16.5457 141.28 17.891C141.28 19.2363 142.23 20.2974 143.587 20.2974Z" fill="#FAFBFF"/>
<path d="M155.31 23.3135H151.749V7.4043H155.31V23.3149V23.3135Z" fill="#FAFBFF"/>
<path d="M160.161 7.17822C161.313 7.17822 162.128 7.96885 162.128 9.13341C162.128 10.298 161.313 11.0776 160.161 11.0776C159.008 11.0776 158.216 10.2869 158.216 9.13341C158.216 7.97989 159.007 7.17822 160.161 7.17822ZM162.004 12.4656V23.3137H158.442V12.4656H162.004Z" fill="#FAFBFF"/>
<path d="M170.167 12.2407C173.524 12.2407 176 14.6581 176 17.891C176 21.1239 173.525 23.5413 170.167 23.5413C166.808 23.5413 164.333 21.1225 164.333 17.891C164.333 14.6595 166.809 12.2407 170.167 12.2407ZM170.167 20.2974C171.524 20.2974 172.473 19.2695 172.473 17.891C172.473 16.5126 171.524 15.5178 170.167 15.5178C168.81 15.5178 167.86 16.5457 167.86 17.891C167.86 19.2363 168.81 20.2974 170.167 20.2974Z" fill="#FAFBFF"/>
<defs>
<linearGradient id="paint0_linear_308_13787" x1="32.2242" y1="2.99745" x2="18.3635" y2="10.4009" gradientUnits="userSpaceOnUse">
<stop stop-color="#5090FF"/>
<stop offset="1" stop-color="#0052FF"/>
</linearGradient>
<linearGradient id="paint1_linear_308_13787" x1="4.3317" y1="4.21996" x2="13.0542" y2="11.3876" gradientUnits="userSpaceOnUse">
<stop stop-color="#5090FF"/>
<stop offset="1" stop-color="#0052FF"/>
</linearGradient>
<linearGradient id="paint2_linear_308_13787" x1="16.0693" y1="4.10697" x2="16.0693" y2="28.9683" gradientUnits="userSpaceOnUse">
<stop stop-color="#5090FF"/>
<stop offset="1" stop-color="#0052FF"/>
</linearGradient>
</defs>
</svg>
