<svg width="176" height="30" viewBox="0 0 176 30" fill="none" xmlns="http://www.w3.org/2000/svg">
<path d="M21.8973 12.6101H30.9804C31.6195 12.6101 32.1385 12.0913 32.1385 11.4524V2.11664C32.1385 1.47779 31.6195 0.958984 30.9804 0.958984H21.8973C19.7743 0.958984 17.7837 1.53022 16.0693 2.52093C19.552 4.53544 21.8973 8.2968 21.8973 12.6087V12.6101Z" fill="url(#paint0_linear_958_402)"/>
<path d="M16.0693 2.52093C14.3548 1.53022 12.3656 0.958984 10.2412 0.958984H1.15816C0.519032 0.958984 0 1.47779 0 2.11664V11.451C0 12.0899 0.519032 12.6087 1.15816 12.6087H10.2412C10.2412 8.2968 12.5865 4.53545 16.0693 2.52093Z" fill="url(#paint1_linear_958_402)"/>
<path d="M21.8973 12.6102C21.8973 8.29834 19.552 4.53698 16.0693 2.52246C12.5865 4.53698 10.2412 8.29834 10.2412 12.6102V28.7374C10.2412 29.3763 10.7602 29.8951 11.3994 29.8951H20.7378C21.3769 29.8951 21.896 29.3763 21.896 28.7374V23.4569V14.8593V12.6102H21.8973Z" fill="url(#paint2_linear_958_402)"/>
<path d="M45.1516 7.96875H57.9369V11.1671H53.4036V23.315H49.6959V11.1671H45.1516V7.96875Z" fill="#101117"/>
<path d="M57.4179 23.3136V12.4655H60.775L60.8882 13.9461C61.3962 12.8726 62.4701 12.2393 63.7249 12.2393C64.1542 12.2393 64.596 12.3179 65.0473 12.4655L64.832 15.5729C64.3792 15.4142 63.9168 15.3355 63.464 15.3355C62.1181 15.3355 60.9765 16.0696 60.9765 18.0924V23.3122H57.4151L57.4179 23.3136Z" fill="#101117"/>
<path d="M65.8066 20.2404C65.8066 18.0823 67.9324 16.7826 70.3964 16.7826C71.1763 16.7826 71.9107 16.8847 72.5664 17.0654V16.8502C72.5664 16.003 71.8196 15.3807 70.5317 15.3807C69.4356 15.3807 68.497 15.9464 67.92 16.5894L65.9529 14.4769C66.7784 13.5621 68.4735 12.2402 70.8367 12.2402C74.1373 12.2402 76.1278 13.9802 76.1278 16.8736V23.3146H72.7472V22.2066C72.1937 22.9517 71.1418 23.5395 69.8539 23.5395C67.5597 23.5395 65.8066 22.2963 65.8066 20.2404ZM70.6338 21.1096C71.7188 21.1096 72.5664 20.3756 72.5664 19.2221C72.1813 19.0523 71.5601 18.9392 71.0286 18.9392C69.9202 18.9392 69.2203 19.3242 69.2203 20.0237C69.2203 20.6681 69.8084 21.1083 70.6338 21.1083V21.1096Z" fill="#101117"/>
<path d="M78.3324 17.9129C78.3324 14.6579 80.3339 12.2405 83.3971 12.2405C85.037 12.2405 86.0543 12.8173 86.6865 13.6079V7.4043H90.1458V23.3149H86.6976L86.5844 22.4787C85.9397 23.1341 84.7416 23.5411 83.3971 23.5411C80.3339 23.5411 78.3324 21.1458 78.3324 17.9143V17.9129ZM84.3136 20.3538C85.6471 20.3538 86.6313 19.3369 86.6313 17.8908C86.6313 16.4448 85.6485 15.4279 84.3136 15.4279C82.9788 15.4279 81.9173 16.3882 81.9173 17.8908C81.9173 19.3934 82.9567 20.3538 84.3136 20.3538Z" fill="#101117"/>
<path d="M97.97 12.2406C100.638 12.2406 103.396 13.913 103.396 17.5405C103.396 17.9365 103.362 18.3656 103.294 18.8058H95.9684C96.1147 19.9814 97.2453 20.5347 98.3648 20.5347C99.3366 20.5347 100.208 19.9248 100.796 19.1893L103.057 21.1777C102.231 22.4885 100.524 23.5399 98.3206 23.5399C94.8723 23.5399 92.487 21.1901 92.487 17.8896C92.487 14.5891 94.7025 12.2393 97.97 12.2393V12.2406ZM95.9698 16.7154H100.107C100.072 15.8682 99.2137 15.043 98.0721 15.043C96.8284 15.043 96.094 15.8226 95.9698 16.7154Z" fill="#101117"/>
<path d="M105.749 23.3136V12.4655H109.106L109.219 13.9461C109.728 12.8726 110.801 12.2393 112.056 12.2393C112.485 12.2393 112.927 12.3179 113.378 12.4655L113.163 15.5729C112.71 15.4142 112.247 15.3355 111.795 15.3355C110.449 15.3355 109.307 16.0696 109.307 18.0924V23.3122H105.746L105.749 23.3136Z" fill="#101117"/>
<path d="M116.331 19.3021C117.1 20.2169 118.06 20.7716 119.169 20.7716C119.779 20.7716 120.345 20.6019 120.345 20.1051C120.345 19.6084 119.678 19.5739 118.005 19.1558C116.038 18.6591 114.478 17.7429 114.478 15.7546C114.478 13.7663 116.264 12.2402 118.955 12.2402C121.159 12.2402 122.652 13.3924 123.375 14.3651L121.284 16.1396C120.876 15.6428 120.063 14.9985 118.92 14.9985C118.084 14.9985 117.631 15.2813 117.631 15.7105C117.631 16.1396 118.433 16.3438 119.757 16.6598C121.859 17.1565 123.634 18.0603 123.634 20.1176C123.634 22.1748 121.702 23.5409 119.147 23.5409C116.592 23.5409 115.054 22.4894 114.161 21.2587L116.331 19.3035V19.3021Z" fill="#101117"/>
<path d="M126.323 7.96875H137.492V11.0982H130.042V14.0247H135.887V17.1555H130.042V23.3136H126.323V7.96875Z" fill="#101117"/>
<path d="M143.587 12.2402C146.944 12.2402 149.42 14.6577 149.42 17.8905C149.42 21.1234 146.945 23.5409 143.587 23.5409C140.228 23.5409 137.753 21.1221 137.753 17.8905C137.753 14.659 140.23 12.2402 143.587 12.2402ZM143.587 20.2969C144.944 20.2969 145.893 19.269 145.893 17.8905C145.893 16.5121 144.944 15.5173 143.587 15.5173C142.23 15.5173 141.28 16.5452 141.28 17.8905C141.28 19.2359 142.23 20.2969 143.587 20.2969Z" fill="#101117"/>
<path d="M155.311 23.3135H151.749V7.4043H155.311V23.3149V23.3135Z" fill="#101117"/>
<path d="M160.161 7.17773C161.314 7.17773 162.128 7.96836 162.128 9.13292C162.128 10.2975 161.314 11.0771 160.161 11.0771C159.009 11.0771 158.216 10.2864 158.216 9.13292C158.216 7.9794 159.007 7.17773 160.161 7.17773ZM162.004 12.4652V23.3132H158.443V12.4652H162.004Z" fill="#101117"/>
<path d="M170.166 12.2402C173.524 12.2402 176 14.6577 176 17.8905C176 21.1234 173.525 23.5409 170.166 23.5409C166.808 23.5409 164.333 21.1221 164.333 17.8905C164.333 14.659 166.809 12.2402 170.166 12.2402ZM170.166 20.2969C171.523 20.2969 172.473 19.269 172.473 17.8905C172.473 16.5121 171.523 15.5173 170.166 15.5173C168.809 15.5173 167.86 16.5452 167.86 17.8905C167.86 19.2359 168.809 20.2969 170.166 20.2969Z" fill="#101117"/>
<defs>
<linearGradient id="paint0_linear_958_402" x1="32.2241" y1="2.99696" x2="18.3634" y2="10.4005" gradientUnits="userSpaceOnUse">
<stop stop-color="#5090FF"/>
<stop offset="1" stop-color="#0052FF"/>
</linearGradient>
<linearGradient id="paint1_linear_958_402" x1="4.3317" y1="4.21947" x2="13.0542" y2="11.3871" gradientUnits="userSpaceOnUse">
<stop stop-color="#5090FF"/>
<stop offset="1" stop-color="#0052FF"/>
</linearGradient>
<linearGradient id="paint2_linear_958_402" x1="16.0693" y1="4.10648" x2="16.0693" y2="28.9679" gradientUnits="userSpaceOnUse">
<stop stop-color="#5090FF"/>
<stop offset="1" stop-color="#0052FF"/>
</linearGradient>
</defs>
</svg>
