<svg width="22" height="20" viewBox="0 0 22 20" fill="none" xmlns="http://www.w3.org/2000/svg">
<path d="M11 14V19M17 19L13.0486 15.7072C12.3198 15.0998 11.9554 14.7962 11.5487 14.6801C11.19 14.5778 10.81 14.5778 10.4513 14.6801C10.0446 14.7962 9.68019 15.0998 8.95141 15.7072L5 19M7 9V10M11 7V10M15 5V10M21 1H1M2 1H20V9.2C20 10.8802 20 11.7202 19.673 12.362C19.3854 12.9265 18.9265 13.3854 18.362 13.673C17.7202 14 16.8802 14 15.2 14H6.8C5.11984 14 4.27976 14 3.63803 13.673C3.07354 13.3854 2.6146 12.9265 2.32698 12.362C2 11.7202 2 10.8802 2 9.2V1Z" stroke="white" stroke-width="1.5" stroke-linecap="round" stroke-linejoin="round"/>
</svg>
