<svg width="20" height="20" viewBox="0 0 20 20" fill="none" xmlns="http://www.w3.org/2000/svg">
<path d="M5.5 10H5.51M10 10H10.01M14.5 10H14.51M10 19C14.9706 19 19 14.9706 19 10C19 5.02944 14.9706 1 10 1C5.02944 1 1 5.02944 1 10C1 11.1971 1.23374 12.3397 1.65806 13.3845C1.73927 13.5845 1.77988 13.6845 1.798 13.7653C1.81572 13.8443 1.8222 13.9028 1.82221 13.9839C1.82222 14.0667 1.80718 14.1569 1.77711 14.3374L1.18413 17.8952C1.12203 18.2678 1.09098 18.4541 1.14876 18.5888C1.19933 18.7067 1.29328 18.8007 1.41118 18.8512C1.54589 18.909 1.73218 18.878 2.10476 18.8159L5.66265 18.2229C5.84309 18.1928 5.9333 18.1778 6.01613 18.1778C6.09715 18.1778 6.15566 18.1843 6.23472 18.202C6.31554 18.2201 6.41552 18.2607 6.61549 18.3419C7.6603 18.7663 8.80286 19 10 19ZM6 10C6 10.2761 5.77614 10.5 5.5 10.5C5.22386 10.5 5 10.2761 5 10C5 9.72386 5.22386 9.5 5.5 9.5C5.77614 9.5 6 9.72386 6 10ZM10.5 10C10.5 10.2761 10.2761 10.5 10 10.5C9.72386 10.5 9.5 10.2761 9.5 10C9.5 9.72386 9.72386 9.5 10 9.5C10.2761 9.5 10.5 9.72386 10.5 10ZM15 10C15 10.2761 14.7761 10.5 14.5 10.5C14.2239 10.5 14 10.2761 14 10C14 9.72386 14.2239 9.5 14.5 9.5C14.7761 9.5 15 9.72386 15 10Z" stroke="white" stroke-width="1.5" stroke-linecap="round" stroke-linejoin="round"/>
</svg>
