<svg width="21" height="21" viewBox="0 0 21 21" fill="none" xmlns="http://www.w3.org/2000/svg">
<path d="M6.24806 20.3333V20.3833H6.29806H15.0353H15.0853V20.3333V19.125V19.075H15.0353H11.3208V14.6308C12.3767 14.4347 13.3028 13.9883 14.098 13.2917C14.8957 12.5931 15.4473 11.7283 15.7525 10.6984C17.0274 10.5418 18.1163 10.0142 19.0174 9.11615C19.9276 8.20907 20.3833 7.11388 20.3833 5.83333V4.625C20.3833 4.28722 20.2571 3.99237 20.0074 3.74263L19.972 3.77799L20.0074 3.74263C19.7576 3.49292 19.4628 3.36667 19.125 3.36667H15.9683V1V0.95H15.9183H5.41507H5.36507V1V3.36667H2.20833C1.87055 3.36667 1.5757 3.49292 1.32597 3.74263L1.32597 3.74263C1.07625 3.99237 0.95 4.28722 0.95 4.625V5.83333C0.95 7.11388 1.40575 8.20907 2.31595 9.11615C3.21708 10.0142 4.30596 10.5418 5.58085 10.6984C5.88598 11.7283 6.43759 12.5931 7.23529 13.2917C8.03052 13.9883 8.95659 14.4347 10.0125 14.6308V19.075H6.29806H6.24806V19.125V20.3333ZM2.25833 4.675H5.36507V9.29949C4.49044 9.18507 3.75782 8.80898 3.16515 8.17067C2.56048 7.51941 2.25833 6.74119 2.25833 5.83333V4.675ZM13.4662 12.2114C12.7012 12.9764 11.7691 13.3586 10.6667 13.3586C9.56426 13.3586 8.63209 12.9764 7.86709 12.2114C7.10208 11.4464 6.71986 10.5143 6.71986 9.41187V2.25833H14.6135V9.41187C14.6135 10.5143 14.2313 11.4464 13.4662 12.2114ZM18.1682 8.17067C17.5755 8.80898 16.8429 9.18507 15.9683 9.29949V4.675H19.075V5.83333C19.075 6.74119 18.7729 7.51941 18.1682 8.17067Z" fill="white" stroke="white" stroke-width="0.1"/>
</svg>
