<svg width="22" height="23" viewBox="0 0 22 23" fill="none" xmlns="http://www.w3.org/2000/svg">
<circle cx="11" cy="11.7354" r="11" fill="#27A3E2"/>
<path d="M5.24944 11.6634L12.0262 8.86912C12.6951 8.57993 14.9668 7.64618 14.9668 7.64618C14.9668 7.64618 16.012 7.23853 15.9249 8.22803C15.8971 8.63568 15.6636 10.0607 15.4302 11.6042L14.702 16.1719C14.702 16.1719 14.6428 16.8409 14.148 16.9559C13.6533 17.0709 12.838 16.5482 12.6916 16.4332C12.5766 16.3461 10.5105 15.0361 9.75447 14.395C9.55239 14.2208 9.31895 13.8724 9.78235 13.4647C10.8346 12.5066 12.0854 11.3115 12.8414 10.5555C13.1899 10.207 13.5383 9.39174 12.0854 10.3812L7.98451 13.1442C7.98451 13.1442 7.51764 13.4369 6.64659 13.1721C5.77555 12.9073 4.75469 12.5623 4.75469 12.5623C4.75469 12.5623 4.05437 12.1268 5.24944 11.6634Z" fill="white"/>
</svg>
